<svg width="93" height="37" viewBox="0 0 93 37" fill="none" xmlns="http://www.w3.org/2000/svg">
<path d="M1.92131 17.5286C5.03395 14.7865 8.30623 11.9346 11.81 11.3926C13.4091 11.1311 15.021 11.4939 16.5328 12.4554C17.9514 13.373 19.2883 14.6271 20.653 15.7608C22.0178 16.8944 23.4624 17.9431 24.9688 18.3292C26.4509 18.7043 27.9625 18.3969 29.3584 17.4365C32.1259 15.5588 34.3128 11.7469 37.0682 9.82317C38.5247 8.82209 40.086 8.39366 41.6447 8.56735C43.2034 8.74105 44.7224 9.51278 46.0969 10.8293C47.5535 12.2464 48.8584 14.1134 50.4307 15.1266C51.9107 16.0877 53.4928 16.4508 55.0618 16.1895C56.5999 15.9316 58.0861 15.0661 59.4115 13.6564C60.6306 12.3598 61.6402 10.5778 62.6518 8.82769C63.5976 7.19096 64.5773 5.4373 65.7705 4.37448C67.1273 3.16288 68.5639 3.11329 70.0104 3.8112C71.5588 4.55517 72.9914 6.01475 74.414 7.29367C75.9304 8.67603 77.518 9.79714 79.1548 10.6416C82.4003 12.2792 85.8037 12.6848 89.1433 11.8319C89.9976 11.6066 90.8447 11.3027 91.6812 10.9214C92.182 10.6983 92.23 9.46539 92.0444 8.79582C91.9392 8.39403 91.7572 8.07141 91.5307 7.88528C91.3042 7.69914 91.0479 7.66153 90.8073 7.77907C87.5755 9.19763 84.2061 9.31865 80.9446 8.13334C79.322 7.55279 77.7421 6.64467 76.2358 5.4267C74.7353 4.21509 73.3106 2.72006 71.7862 1.6041C70.2618 0.48815 68.5938 -0.308942 66.9417 0.116183C65.5071 0.470454 64.2361 1.69623 63.1187 3.30462C62.0014 4.91301 61.0835 6.71623 60.046 8.37776C58.9685 10.1066 57.8052 11.4776 56.4105 12.2747C55.0207 13.0407 53.5461 13.1879 52.1167 12.7034C50.5923 12.1862 49.3233 10.8081 48.0284 9.36265C46.5698 7.72946 45.0814 6.40804 43.3894 5.74201C41.7863 5.11316 40.1291 5.05296 38.5129 5.56487C36.9897 6.07754 35.5288 7.06077 34.197 8.46988C32.914 9.78776 31.709 11.3253 30.428 12.6432C29.2148 13.8902 27.9019 14.953 26.4892 15.1656C25.0766 15.3782 23.6799 14.6838 22.377 13.7485C19.4858 11.6442 16.8121 8.523 13.6157 8.10142C10.0601 7.63378 6.63215 9.76651 3.43969 12.3704C2.64158 13.0293 1.84346 13.7237 1.04535 14.4251C0.00580662 15.3392 0.953544 18.4249 1.91926 17.5711L1.92131 17.5286Z" fill="#079307"/>
<path d="M1.91942 26.7863C5.03206 24.0443 8.30434 21.1924 11.8081 20.6504C13.4072 20.3889 15.0191 20.7516 16.5309 21.7132C17.9495 22.6308 19.2864 23.8849 20.6511 25.0185C22.0159 26.1522 23.4605 27.2008 24.9669 27.587C26.449 27.962 27.9606 27.6546 29.3565 26.6942C32.124 24.8166 34.3109 21.0046 37.0664 19.0809C38.5228 18.0799 40.0842 17.6514 41.6428 17.8251C43.2015 17.9988 44.7205 18.7705 46.095 20.0871C47.5516 21.5041 48.8565 23.3712 50.4288 24.3844C51.9088 25.3454 53.4909 25.7085 55.0599 25.4472C56.598 25.1893 58.0842 24.3238 59.4096 22.9141C60.6287 21.6175 61.6383 19.8355 62.65 18.0854C63.5957 16.4487 64.5754 14.6951 65.7686 13.6323C67.1254 12.4207 68.562 12.3711 70.0085 13.069C71.5569 13.8129 72.9895 15.2725 74.4121 16.5514C75.9285 17.9338 77.5161 19.0549 79.153 19.8993C82.3984 21.537 85.8018 21.9426 89.1414 21.0897C89.9957 20.8644 90.8428 20.5604 91.6793 20.1792C92.1801 19.956 92.2281 18.7231 92.0425 18.0536C91.9373 17.6518 91.7553 17.3292 91.5288 17.1431C91.3023 16.9569 91.046 16.9193 90.8054 17.0368C87.5736 18.4554 84.2042 18.5764 80.9427 17.3911C79.3201 16.8105 77.7403 15.9024 76.2339 14.6844C74.7334 13.4728 73.3087 11.9778 71.7843 10.8619C70.2599 9.74593 68.5919 8.94879 66.9398 9.37392C65.5052 9.7459 64.2342 10.954 63.1168 12.5624C61.9995 14.1707 61.0816 15.974 60.0441 17.6355C58.9666 19.3644 57.8033 20.7354 56.4086 21.5148C55.0188 22.2807 53.5442 22.4279 52.1148 21.9434C50.5904 21.4262 49.3214 20.0481 48.0265 18.6027C46.5679 16.9695 45.0795 15.6481 43.3875 14.9821C41.7844 14.3532 40.1272 14.293 38.511 14.8049C36.9878 15.3176 35.5269 16.3008 34.1951 17.7099C32.9121 19.0278 31.7071 20.5654 30.4261 21.8832C29.213 23.1303 27.9 24.1931 26.4873 24.4056C25.0747 24.6182 23.678 23.9238 22.3751 22.9886C19.4839 20.8842 16.8102 17.763 13.6138 17.3415C10.0582 16.8738 6.63026 19.0065 3.4378 21.5927C2.63969 22.2517 1.84157 22.946 1.04346 23.6475C0.00391454 24.5615 0.951652 27.6472 1.91737 26.7934L1.91942 26.7863Z" fill="#079307"/>
<path d="M1.92113 36.0441C5.03377 33.3021 8.30605 30.4502 11.8098 29.9081C13.4089 29.6466 15.0208 30.0094 16.5326 30.971C17.9512 31.8885 19.2881 33.1427 20.6528 34.2763C22.0176 35.41 23.4622 36.4586 24.9686 36.8448C26.4507 37.2199 27.9623 36.9124 29.3583 35.952C32.1257 34.0744 34.3126 30.2624 37.0681 28.3388C38.5245 27.3377 40.0859 26.9092 41.6446 27.0829C43.2033 27.2566 44.7222 28.0283 46.0967 29.3449C47.5533 30.762 48.8583 32.629 50.4305 33.6422C51.9105 34.6032 53.4926 34.9663 55.0616 34.705C56.5997 34.4471 58.0859 33.5816 59.4113 32.1719C60.6304 30.8753 61.6401 29.0933 62.6517 27.3432C63.5974 25.7065 64.5771 23.9529 65.7703 22.8901C67.1271 21.6785 68.5637 21.6288 70.0103 22.3267C71.5586 23.0707 72.9912 24.5303 74.4138 25.8093C75.9302 27.1916 77.5178 28.3127 79.1547 29.1571C82.4001 30.7948 85.8035 31.2003 89.1431 30.3474C89.9974 30.1221 90.8445 29.8183 91.681 29.437C92.1818 29.2138 92.2298 27.9809 92.0442 27.3114C91.939 26.9096 91.757 26.587 91.5305 26.4008C91.304 26.2147 91.0477 26.1771 90.8071 26.2946C87.5753 27.7132 84.2059 27.8342 80.9444 26.6489C79.3218 26.0683 77.742 25.1602 76.2356 23.9422C74.7351 22.7306 73.3104 21.2356 71.786 20.1196C70.2616 19.0037 68.5936 18.2066 66.9415 18.6317C65.5069 18.986 64.2359 20.2118 63.1185 21.8202C62.0012 23.4285 61.0834 25.2318 60.0458 26.8933C58.9684 28.6221 57.8051 29.9932 56.4104 30.7903C55.0205 31.5562 53.5459 31.7034 52.1165 31.219C50.5921 30.7017 49.3231 29.3236 48.0282 27.8782C46.5697 26.245 45.0812 24.9236 43.3892 24.2575C41.7861 23.6287 40.1289 23.5685 38.5127 24.0804C36.9895 24.5931 35.5286 25.5763 34.1968 26.9854C32.9139 28.3033 31.7088 29.8408 30.4278 31.1587C29.2147 32.4058 27.9017 33.4686 26.4891 33.6811C25.0764 33.8937 23.6797 33.1993 22.3768 32.2641C19.4856 30.1597 16.8119 27.0386 13.6155 26.617C10.0599 26.1494 6.63197 28.2821 3.43951 30.8683C2.6414 31.5272 1.84328 32.2215 1.04517 32.923C0.00562352 33.837 0.953361 36.9227 1.91908 36.0689L1.92113 36.0441Z" fill="#079307"/>
</svg>
